<?xml version="1.0" standalone="no"?>
<!DOCTYPE svg PUBLIC "-//W3C//DTD SVG 20010904//EN"
 "http://www.w3.org/TR/2001/REC-SVG-20010904/DTD/svg10.dtd">
<svg version="1.0" xmlns="http://www.w3.org/2000/svg"
 width="512.000000pt" height="512.000000pt" viewBox="0 0 512.000000 512.000000"
 preserveAspectRatio="xMidYMid meet">

<g transform="translate(0.000000,512.000000) scale(0.100000,-0.100000)"
fill="#000000" stroke="none">
<path d="M4761 4371 c-107 -38 -146 -86 -156 -194 -7 -79 7 -193 31 -238 42
-81 139 -149 215 -149 20 0 53 7 73 15 20 8 36 12 36 8 0 -4 -19 -38 -42 -76
-54 -89 -155 -197 -298 -317 -163 -136 -161 -151 20 -149 138 1 158 -1 105
-11 -45 -10 -330 -22 -302 -14 41 13 11 24 -67 24 l-84 0 -11 33 c-6 17 -40
129 -76 247 -37 118 -70 219 -75 224 -5 5 -20 6 -34 2 -22 -5 -26 -12 -26 -40
0 -76 114 -454 156 -519 34 -52 44 -122 44 -318 l0 -167 -55 -27 c-70 -36
-154 -123 -194 -203 -17 -34 -41 -102 -52 -150 -43 -178 -9 -408 80 -534 78
-112 170 -153 330 -146 83 3 103 8 148 32 29 16 78 55 109 88 30 32 57 58 60
58 2 0 4 -36 4 -80 l0 -80 94 0 93 0 5 743 c4 615 7 747 19 768 60 111 93 180
105 219 7 25 18 131 24 235 12 203 18 243 52 345 16 48 22 90 22 161 1 87 -1
99 -26 136 -53 81 -208 117 -327 74z m227 -35 c17 -9 44 -33 59 -53 26 -33 28
-43 28 -122 0 -91 -22 -164 -68 -232 -80 -118 -216 -132 -296 -30 -70 88 -99
279 -54 352 24 38 96 83 159 98 51 13 134 7 172 -13z m-29 -658 c-34 -121 -62
-169 -152 -255 -90 -86 -146 -119 -221 -129 -63 -9 -59 4 21 71 33 28 92 77
130 109 65 54 124 121 203 234 17 23 32 42 34 42 3 0 -4 -32 -15 -72z m-773
-174 c36 -113 64 -208 60 -211 -11 -11 -33 20 -50 70 -31 92 -96 324 -96 341
0 45 24 -11 86 -200z m815 48 c-29 -149 -59 -238 -91 -272 -35 -37 -67 -39
-76 -5 -3 14 -19 33 -35 42 -16 10 -29 21 -29 25 0 3 32 35 70 69 87 78 112
116 140 210 12 41 25 79 29 84 15 24 11 -53 -8 -153z m-461 -372 c12 -8 9 -10
-13 -10 -16 0 -26 4 -22 10 8 12 16 12 35 0z m158 -289 c-1 -143 -6 -262 -10
-266 -10 -10 -156 112 -190 159 -30 41 -141 261 -153 303 -5 19 -1 23 32 32
43 11 191 28 271 30 l54 1 -4 -259z m-282 -43 c24 -48 44 -90 44 -93 0 -3 -34
-5 -75 -5 l-75 0 0 148 0 147 31 -55 c17 -30 51 -94 75 -142z m148 -287 c34
-16 76 -42 93 -57 l33 -29 2 -225 c2 -258 0 -264 -82 -329 -104 -82 -194 -110
-277 -84 -129 39 -180 157 -170 395 8 210 65 320 185 359 49 16 151 2 216 -30z"/>
<path d="M1947 4319 c-137 -22 -258 -167 -259 -313 0 -53 6 -78 37 -147 l38
-83 -12 -76 c-24 -143 16 -336 93 -459 l26 -41 0 -755 0 -755 100 0 100 0 0
243 c0 133 4 248 8 255 6 8 82 -68 242 -243 l233 -255 125 0 124 0 -129 138
c-240 256 -363 391 -363 400 0 21 71 113 224 287 91 105 166 193 166 197 0 4
-26 9 -57 13 -108 11 -95 -5 -151 197 -77 279 -73 257 -53 267 9 5 53 7 98 4
120 -8 125 -5 189 94 59 91 181 319 210 391 15 40 15 45 1 59 -15 15 -19 13
-49 -20 -18 -19 -73 -106 -123 -193 -111 -195 -137 -224 -195 -224 -49 0 -51
-20 -2 -32 41 -11 41 -28 0 -29 -169 -5 -425 14 -443 33 -7 6 39 9 142 6 83
-1 155 0 159 4 16 17 -39 54 -194 130 -141 70 -173 90 -231 147 -81 80 -146
159 -137 168 3 3 16 2 29 -4 16 -8 25 -7 35 3 9 10 28 12 71 7 79 -8 104 0
157 49 60 55 75 87 85 180 5 42 18 102 30 132 24 66 21 75 -51 139 -77 69
-178 101 -273 86z m254 -179 c37 -21 21 -215 -24 -282 -54 -80 -158 -117 -230
-83 -44 20 -52 40 -50 125 2 117 53 212 128 238 39 14 151 15 176 2z m-340
-530 c92 -149 124 -178 259 -233 106 -42 112 -46 75 -47 -88 -2 -116 -13 -134
-50 -16 -34 -18 -35 -82 -38 -52 -2 -70 1 -90 16 -37 29 -68 102 -90 205 -21
103 -26 251 -8 245 6 -2 38 -46 70 -98z m1014 0 c-37 -73 -154 -271 -178 -302
-16 -20 -27 -23 -27 -9 0 21 229 396 236 388 3 -3 -11 -37 -31 -77z m-779
-166 c32 -14 54 -34 36 -34 -19 0 -88 33 -120 57 -34 26 -92 98 -92 116 0 5
32 -21 71 -58 40 -37 86 -73 105 -81z m217 -295 c51 -8 67 -15 68 -27 3 -44
-4 -103 -33 -294 -17 -114 -28 -214 -24 -223 10 -27 25 -7 31 43 13 113 59
372 65 372 11 0 91 -290 83 -303 -4 -7 -99 -117 -211 -245 -148 -169 -207
-230 -213 -220 -5 7 -9 218 -9 468 l0 456 88 -8 c48 -4 117 -13 155 -19z"/>
<path d="M580 3906 c-23 -48 -37 -58 -69 -49 -11 3 -29 2 -38 -2 -16 -6 -15
-9 10 -29 l28 -23 -43 -62 c-43 -62 -43 -64 -43 -149 0 -99 22 -171 67 -226
39 -47 162 -106 221 -106 26 0 47 -4 47 -9 0 -15 -198 -217 -265 -271 -35 -28
-104 -77 -153 -109 -83 -55 -92 -64 -102 -103 -22 -83 -53 -154 -132 -301 -80
-150 -113 -225 -102 -236 9 -10 29 23 142 238 59 113 123 222 143 243 l36 38
84 -1 c127 -2 151 -13 59 -27 -101 -16 -150 -30 -156 -47 -10 -24 33 -71 154
-168 64 -52 148 -127 187 -166 66 -67 95 -85 95 -60 0 19 -168 185 -249 246
-125 94 -150 135 -88 147 77 16 172 18 189 4 26 -21 234 -285 294 -373 30 -44
54 -87 54 -96 0 -30 -148 -240 -291 -416 -38 -46 -69 -89 -69 -94 0 -5 42 -9
93 -8 l92 0 95 127 c52 69 118 154 147 189 l51 63 39 -44 c21 -24 88 -109 148
-190 l110 -145 103 -1 c61 0 102 4 102 10 0 5 -68 101 -151 212 -210 280 -224
303 -212 331 6 12 63 94 128 182 166 224 208 285 202 291 -8 9 -119 9 -144 0
-12 -4 -84 -83 -159 -177 -75 -93 -140 -169 -144 -169 -13 0 -119 130 -141
172 -35 67 -19 180 43 320 l32 70 -58 117 c-32 64 -78 144 -102 178 -24 34
-44 64 -44 68 0 3 17 32 38 63 43 63 66 117 76 177 15 83 26 114 46 120 30 10
24 22 -26 51 l-46 27 4 65 3 65 -135 43 c-74 24 -145 43 -157 43 -15 1 -27
-11 -43 -43z m128 -158 c103 -32 142 -50 165 -72 28 -29 29 -33 25 -101 -8
-116 -78 -229 -169 -270 -37 -17 -41 -17 -86 0 -64 24 -145 106 -166 170 -10
27 -17 80 -17 120 0 59 4 78 22 101 25 34 80 94 86 94 2 0 65 -19 140 -42z
m92 -590 c18 -50 25 -263 10 -331 -12 -59 -12 -59 -43 -53 -18 3 -104 8 -192
11 -189 7 -247 13 -240 26 3 5 59 49 123 98 64 49 162 133 217 185 55 53 103
96 106 96 4 0 12 -15 19 -32z m121 -105 c45 -97 47 -125 15 -219 -51 -147 -70
-181 -92 -163 -18 15 -18 62 1 123 11 34 15 95 15 203 0 112 3 152 11 147 6
-4 29 -44 50 -91z"/>
<path d="M4182 3808 c-14 -14 -16 -42 -2 -33 14 9 32 45 22 45 -4 0 -13 -5
-20 -12z"/>
<path d="M2836 3781 c-8 -12 3 -41 15 -41 12 0 12 37 0 45 -5 3 -12 1 -15 -4z"/>
<path d="M2770 3732 c0 -5 9 -17 20 -27 22 -20 26 -14 10 16 -11 19 -30 26
-30 11z"/>
<path d="M4190 3725 c-7 -9 -10 -19 -6 -22 8 -9 38 9 44 25 5 17 -23 15 -38
-3z"/>
<path d="M4233 3653 c-7 -2 -13 -11 -13 -19 0 -16 42 -4 48 14 4 12 -13 15
-35 5z"/>
<path d="M4245 3570 c-3 -5 3 -10 14 -10 11 0 23 5 26 10 3 6 -3 10 -14 10
-11 0 -23 -4 -26 -10z"/>
<path d="M2670 3535 c0 -8 7 -15 15 -15 9 0 12 6 9 15 -4 8 -10 15 -15 15 -5
0 -9 -7 -9 -15z"/>
<path d="M2620 3479 c0 -17 27 -45 35 -37 3 3 -3 16 -14 29 -16 19 -20 20 -21
8z"/>
<path d="M2593 3401 c4 -14 1 -31 -4 -38 -6 -6 -8 -17 -4 -23 12 -19 33 -10
40 17 5 20 1 31 -16 47 l-22 21 6 -24z"/>
<path d="M4305 3361 c-10 -17 11 -21 31 -6 18 14 18 14 -3 15 -12 0 -24 -4
-28 -9z"/>
<path d="M4328 3293 c7 -3 16 -2 19 1 4 3 -2 6 -13 5 -11 0 -14 -3 -6 -6z"/>
<path d="M3293 2720 c-92 -24 -147 -57 -210 -123 -98 -103 -138 -233 -130
-422 5 -143 24 -204 92 -299 58 -82 124 -141 195 -175 51 -24 64 -26 190 -25
164 1 265 18 297 50 18 18 23 34 23 73 0 80 -1 81 -83 53 -57 -20 -93 -25
-173 -26 -89 0 -107 3 -150 25 -172 89 -236 369 -133 586 52 110 139 158 284
157 44 -1 109 -9 144 -18 88 -24 94 -20 89 59 -2 36 -8 69 -14 75 -32 32 -311
39 -421 10z"/>
</g>
</svg>
